<svg width="29" height="32" viewBox="0 0 29 32" fill="none" xmlns="http://www.w3.org/2000/svg">
<path d="M14.7084 31.705C14.6411 31.7492 14.5624 31.7728 14.4819 31.7728C14.4013 31.7728 14.3226 31.7492 14.2553 31.705L6.40261 26.5645C6.34559 26.5264 6.29885 26.4747 6.26654 26.4143C6.23421 26.3537 6.21731 26.2861 6.21731 26.2173C6.21731 26.1485 6.23421 26.0811 6.26654 26.0205C6.29885 25.9599 6.34559 25.9082 6.40261 25.8701L28.3226 11.5155C28.3853 11.4754 28.4576 11.4526 28.5319 11.4495C28.6062 11.4463 28.6803 11.4628 28.7463 11.4973C28.8135 11.5319 28.8702 11.5842 28.9101 11.6485C28.9499 11.7129 28.9717 11.7869 28.9728 11.8627V22.1458C28.9728 22.2148 28.9558 22.2828 28.923 22.3434C28.8901 22.4041 28.8425 22.4555 28.7848 22.4931L14.7084 31.705ZM2.77761 24.1906C2.84529 24.234 2.9239 24.2569 3.00417 24.2569C3.08444 24.2569 3.16304 24.234 3.23074 24.1906L28.7757 7.46214C28.8335 7.4246 28.8811 7.37315 28.9139 7.31251C28.9468 7.25184 28.9637 7.18389 28.9637 7.1149V0.415311C28.9637 0.305162 28.92 0.199537 28.8423 0.12165C28.7646 0.043761 28.659 1.57809e-06 28.5491 1.57809e-06H23.0777C22.997 -0.000222649 22.9182 0.0234526 22.8511 0.0680697L0.194813 14.9084C0.137151 14.9461 0.0898028 14.9975 0.0569725 15.0582C0.0241423 15.1188 0.00684651 15.1866 0.00674821 15.2556V22.1458C0.00664177 22.2148 0.023792 22.2828 0.0566406 22.3434C0.0894892 22.4041 0.137007 22.4555 0.194813 22.4931L2.77761 24.1906ZM0 10.5078C0.000106501 10.5826 0.0203626 10.6559 0.0586319 10.7201C0.0969012 10.7843 0.151716 10.837 0.217381 10.8726C0.283045 10.9081 0.357081 10.9253 0.431663 10.9222C0.506247 10.9191 0.578675 10.8959 0.64119 10.855L16.0474 0.762551C16.122 0.713548 16.1787 0.641766 16.2093 0.557876C16.2399 0.473984 16.2427 0.382457 16.2173 0.296849C16.1918 0.211241 16.1395 0.136116 16.0681 0.0826421C15.9967 0.029169 15.91 0.000196075 15.8209 1.57809e-06H0.414627C0.304665 1.57809e-06 0.199111 0.043761 0.121357 0.12165C0.0436026 0.199537 0 0.305162 0 0.415311V10.5078Z" fill="#C4F120"/>
</svg>

